# xmcd
#
# Track frame offsets:
#	150
#	14976
#	29171
#	49594
#	64549
#	80923
#	94246
#	110322
#	128275
#	149923
#	165887
#	186453
#
# Disc length: 3046 seconds
#
# Revision: 1
# Processed by: cddbd v1.5.2PL0 Copyright (c) Steve Scherf et al.
# Submitted via: audiograbber 1.83.01
#
DISCID=ab0be40c
DTITLE=Amy MacDonald - A Curious Thing
DYEAR=2008
DGENRE=Folk
TTITLE0=Dont't Tell Me That It's Over 
TTITLE1=Spark
TTITLE2=I Got No Roots
TTITLE3=Love Love
TTITLE4=An Ordinary Life
TTITLE5=Give It All Up
TTITLE6=My Only One
TTITLE7=This Pretty Face
TTITLE8=Troubled Soul
TTITLE9=Next Big Thing
TTITLE10=Your Time Will Come
TTITLE11=What Happiness Means To Me
EXTD=
EXTT0=
EXTT1=
EXTT2=
EXTT3=
EXTT4=
EXTT5=
EXTT6=
EXTT7=
EXTT8=
EXTT9=
EXTT10=
EXTT11=
PLAYORDER=
